<?xml version="1.0" encoding="UTF-8"?>
<!DOCTYPE svg PUBLIC "-//W3C//DTD SVG 1.1//EN" "http://www.w3.org/Graphics/SVG/1.1/DTD/svg11.dtd">
<!-- Creator: CorelDRAW -->
<svg xmlns="http://www.w3.org/2000/svg" xml:space="preserve" width="215.9mm" height="279.4mm" style="shape-rendering:geometricPrecision; text-rendering:geometricPrecision; image-rendering:optimizeQuality; fill-rule:evenodd; clip-rule:evenodd"
viewBox="0 0 215.9 279.4">
 <defs>
  <style type="text/css">
   <![CDATA[
    .str0 {stroke:white;stroke-width:0.3528}
    .str1 {stroke:white;stroke-width:1.4111}
    .fil1 {fill:#00923F}
    .fil2 {fill:#0093DD}
    .fil0 {fill:#E77817}
   ]]>
  </style>
 </defs>
 <g id="Layer_x0020_1">
  <metadata id="CorelCorpID_0Corel-Layer"/>
  <path class="fil0 str0" d="M57.8895 65.001l0 4.8636 9.7379 0 4.2836 0 7.0969 0 22.0605 0 11.4024 0 22.0595 0 7.0971 0 2.4659 0 11.5558 0 0 -4.8636 -49.2379 0 -48.5217 0zm101.872 0l0 163.208 -51.5728 33.4348 29.6451 -29.7548 0 -105.032 9.0343 0c5.0268,0 9.1396,-5.4028 9.1396,-12.0061l0 -23.1549c0,-0.6731 -0.0437,-1.3334 -0.1258,-1.9772l-28.1464 0c-0.0822,0.6438 -0.1259,1.3041 -0.1259,1.9772l0 23.1549c0,5.3759 2.7263,9.9554 6.452,11.4725l0 105.566 -26.7785 30.3419 -0.5142 0.3334 -0.5137 -0.3334 -26.7783 -30.3419 0 -105.566c3.7233,-1.5171 6.4504,-6.0966 6.4504,-11.4725l0 -23.1549c0,-0.6731 -0.0423,-1.3334 -0.1247,-1.9772l-28.1474 0c-0.0816,0.6438 -0.1258,1.3041 -0.1258,1.9772l0 23.1549c0,6.6033 4.1133,12.0061 9.1388,12.0061l9.0368 0 0 105.032 29.6436 29.7548 -51.5723 -33.4348 0 -163.208 -11.7475 0 59.4522 -36.472 -0.0002 0c-3.2416,-2.0678 -7.5554,-2.9141 -6.809,-6.9503 -3.3949,-2.5461 -5.8379,-3.6783 -7.3658,-7.6301 6.3684,3.8522 12.7367,7.7042 19.1048,11.5561 6.367,-3.8519 12.7379,-7.7039 19.1049,-11.5561 -1.5295,3.9518 -3.9721,5.084 -7.3666,7.6301 0.7467,4.0362 -3.5657,4.8825 -6.8081,6.9503l-0.0001 0 59.4555 36.472 -11.0349 0zm-87.8509 6.2966l0 9.5628 7.0969 0 0 -9.5628 -7.0969 0zm29.1574 0l0 16.1976 5.7009 0 5.7015 0 0 -16.1976 -11.4024 0zm33.4619 0l0 9.5628 7.0971 0 0 -9.5628 -7.0971 0zm-12.7258 18.4209l-9.5444 0 0 26.3827 9.5444 0 0 -26.3827zm-30.0719 0l9.5462 0 0 26.3827 -9.5462 0 0 -26.3827z"/>
  <polygon class="fil1 str1" points="89.6767,110.094 106.77,110.094 123.864,110.094 123.864,139.264 106.77,156.237 89.6767,139.264 "/>
  <polygon class="fil1 str1" points="152.913,139.145 152.913,156.238 152.913,173.332 123.744,173.332 106.77,156.238 123.744,139.145 "/>
  <polygon class="fil1 str1" points="123.863,202.381 106.77,202.381 89.6752,202.381 89.6752,173.211 106.77,156.238 123.863,173.211 "/>
  <polygon class="fil1 str1" points="60.6262,173.331 60.6262,156.238 60.6262,139.143 89.796,139.143 106.77,156.238 89.796,173.331 "/>
  <path class="fil2 str0" d="M197.659 154.768c-0.7504,26.2678 -11.0836,53.0601 -31.4253,67.6107 6.4391,-16.1825 13.8876,-32.3317 15.0712,-46.0738l-25.6964 -21.5369 25.6964 -21.5425c-1.1836,-13.7426 -8.6321,-29.8823 -15.0712,-46.0681 20.3417,14.5467 30.6749,41.3473 31.4253,67.6106z"/>
  <path class="fil2 str0" d="M17.3582 154.768c0.7505,26.2678 11.0836,53.0601 31.4253,67.6107 -6.4391,-16.1825 -13.8875,-32.3317 -15.0712,-46.0738l25.6964 -21.5369 -25.6964 -21.5425c1.1837,-13.7426 8.6321,-29.8823 15.0712,-46.0681 -20.3417,14.5467 -30.6748,41.3473 -31.4253,67.6106z"/>
 </g>
</svg>
